<svg width="72" height="72" viewBox="0 0 72 72" fill="none" xmlns="http://www.w3.org/2000/svg">
<path d="M25.0312 0.267197C23.6812 0.562508 22.5 1.02657 21.2906 1.74376C20.4609 2.23595 12.0938 9.12657 10.7859 10.3781C9.37969 11.7281 8.31094 13.5563 7.63594 15.7078L7.24219 16.9453V40.4297C7.24219 62.7891 7.25625 63.9563 7.49531 64.8281C8.36719 67.8938 10.7297 70.4109 13.7672 71.4938L14.9766 71.9297H36H57.0234L58.1484 71.5359C61.2422 70.4531 63.6187 67.9219 64.5047 64.8281C64.7437 63.9563 64.7578 62.6625 64.7578 36C64.7578 9.33751 64.7437 8.04375 64.5047 7.17188C63.6187 4.07813 61.2422 1.54688 58.1484 0.464066L57.0234 0.0703201L41.625 0.0421906C27.225 0.0140686 26.1562 0.0281296 25.0312 0.267197ZM56.9953 5.175C58.5422 5.80782 59.6391 7.25626 59.9203 9.02813C60.0047 9.59063 60.0469 19.8141 60.0187 36.6328C59.9766 61.4531 59.9625 63.3938 59.7375 63.9563C59.3438 64.9266 58.6687 65.7984 57.8953 66.3047C56.4328 67.275 57.6281 67.2328 35.5641 67.1906L15.6797 67.1484L14.9062 66.7828C13.4156 66.0938 12.5016 64.9828 12.15 63.4359C11.9953 62.8031 11.9531 58.4578 11.9531 40.6406C11.9531 25.9453 12.0094 18.3234 12.1078 17.7188C12.2766 16.6922 12.9937 15.0891 13.6406 14.3156C14.1047 13.7672 22.3031 6.93282 23.5969 6.03282C24.2859 5.54063 25.5656 5.02032 26.4375 4.87969C26.6344 4.83751 33.3984 4.82344 41.4844 4.83751L56.1797 4.85157L56.9953 5.175Z" fill="#EEB949"/>
<path d="M44.3391 14.5547C43.9734 14.7797 43.65 15.1313 43.4672 15.5109C43.1719 16.1016 43.1719 16.2984 43.1719 23.85C43.1719 31.0359 43.2 31.6125 43.4391 32.1328C43.5797 32.4422 43.8187 32.8078 43.9594 32.9344C44.3391 33.2719 45.1969 33.6094 45.6609 33.6094C46.3359 33.6094 47.2219 33.0609 47.6016 32.4141L47.9531 31.8094L47.925 23.7234C47.8828 15.7922 47.8828 15.6234 47.5875 15.2437C47.0812 14.5547 46.6031 14.3016 45.7453 14.2453C45.0562 14.2031 44.8312 14.2453 44.3391 14.5547Z" fill="#EEB949"/>
<path d="M35.1562 19.561C34.7062 19.7438 34.0594 20.3485 33.8062 20.8407C33.6516 21.15 33.6094 22.2188 33.6094 26.4235C33.6094 29.7422 33.6656 31.7672 33.7641 32.0203C33.975 32.5828 34.7062 33.3 35.2687 33.4828C36.3516 33.8485 37.7437 33.1875 38.1937 32.1047C38.4469 31.5282 38.475 21.6282 38.2359 20.9954C37.8 19.8141 36.2953 19.111 35.1562 19.561Z" fill="#EEB949"/>
<path d="M25.4529 21.5296C24.9888 21.7124 24.4966 22.1906 24.2435 22.6828C23.9201 23.3015 23.9623 31.6265 24.2857 32.3015C24.5529 32.8781 25.3544 33.4546 26.0716 33.5671C27.1545 33.7359 28.3779 32.9343 28.6873 31.8093C28.7716 31.514 28.8279 29.6296 28.8279 27.3515C28.8279 23.8218 28.7998 23.3578 28.5607 22.8515C27.9841 21.614 26.6623 21.0515 25.4529 21.5296Z" fill="#EEB949"/>
<path d="M20.869 41.0485C19.4768 41.6813 19.0268 43.2844 19.8846 44.5781C20.5737 45.6328 19.4627 45.5625 36.1971 45.5625C48.6987 45.5625 51.2721 45.5344 51.6659 45.3656C52.608 44.9719 53.1705 43.8047 52.9596 42.6797C52.833 42.0047 52.0034 41.1047 51.3565 40.9219C51.019 40.8375 45.6471 40.7813 36.1409 40.7813C22.1346 40.7813 21.4174 40.7953 20.869 41.0485Z" fill="#EEB949"/>
<path d="M20.7986 52.8891C19.4768 53.1704 18.6752 54.661 19.1111 56.011C19.3221 56.6438 20.0674 57.3188 20.7705 57.5016C21.5018 57.7126 50.4846 57.7126 51.2158 57.5157C52.6361 57.1079 53.3955 55.5891 52.8189 54.2391C52.608 53.7188 51.8908 53.0579 51.4268 52.9454C50.9768 52.8329 21.333 52.7907 20.7986 52.8891Z" fill="#EEB949"/>
</svg>
