<svg width="64" height="64" viewBox="0 0 64 64" fill="none" xmlns="http://www.w3.org/2000/svg">
<path d="M21.9453 0.626475C20.6516 0.963975 19.5125 1.8921 18.9219 3.10147L18.5703 3.8046V31.9999V60.1952L18.9219 60.8983C19.3578 61.7983 20.2156 62.6421 21.1016 63.078C21.6781 63.3452 22.0297 63.4155 23 63.4155C24.0969 63.4296 24.2656 63.3874 25.0812 62.9515C26.0656 62.4171 26.4875 61.9812 27.05 60.9124L27.4297 60.1952V31.9999V3.8046L26.9516 2.91866C26.15 1.4421 24.9266 0.668662 23.2953 0.570225C22.7891 0.5421 22.1844 0.556162 21.9453 0.626475Z" fill="#EEB949"/>
<path d="M57.9453 18.6265C56.6516 18.964 55.5125 19.8921 54.9219 21.1015L54.5703 21.8046V40.9999V60.1952L54.9219 60.8984C55.3578 61.7984 56.2156 62.6421 57.1016 63.078C58.0719 63.5421 59.9 63.5562 60.8281 63.1062C61.8266 62.628 62.4172 62.0515 62.9516 61.0812L63.4297 60.1952V40.9999V21.8046L63.0781 21.1015C62.6281 20.2015 61.7844 19.3577 60.9125 18.9499C60.1672 18.5984 58.6625 18.4296 57.9453 18.6265Z" fill="#EEB949"/>
<path d="M3.94531 27.6265C2.65156 27.964 1.5125 28.8921 0.921875 30.1015L0.570312 30.8046V45.4999V60.1952L0.921875 60.8983C1.35781 61.7983 2.21562 62.6421 3.10156 63.078C3.67812 63.3452 4.02969 63.4155 5 63.4155C6.09687 63.4296 6.26562 63.3874 7.08125 62.9515C8.06562 62.4171 8.4875 61.9812 9.05 60.9124L9.42969 60.1952V45.4999V30.8046L8.95156 29.9187C8.15 28.4421 6.92656 27.6687 5.29531 27.5702C4.78906 27.5421 4.18437 27.5562 3.94531 27.6265Z" fill="#EEB949"/>
<path d="M39.9453 36.6265C38.6516 36.964 37.5125 37.8921 36.9219 39.1015L36.5703 39.8046V49.9999V60.1952L36.9219 60.8984C37.3578 61.7984 38.2156 62.6421 39.1016 63.078C40.0719 63.5421 41.9 63.5562 42.8281 63.1062C43.8266 62.628 44.4172 62.0515 44.9516 61.0812L45.4297 60.1952V49.9999V39.8046L45.0781 39.1015C44.6281 38.2015 43.7844 37.3577 42.9125 36.9499C42.1672 36.5984 40.6625 36.4296 39.9453 36.6265Z" fill="#EEB949"/>
</svg>
