<svg width="72" height="72" viewBox="0 0 72 72" fill="none" xmlns="http://www.w3.org/2000/svg">
<path d="M5.07676 0.154739C2.65801 0.632866 0.604883 2.71411 0.14082 5.18911C-0.0560547 6.22974 -0.0560547 65.7704 0.14082 66.811C0.618945 69.3422 2.65801 71.3813 5.18926 71.8594C6.22988 72.0563 48.6142 72.0563 49.6549 71.8594C52.1861 71.3813 54.2252 69.3422 54.7033 66.811C54.7877 66.3469 54.8439 62.4094 54.8439 56.475V46.9125L62.9017 38.8125C70.3549 31.3313 70.9877 30.6563 71.3533 29.8407C72.1689 27.9704 72.1548 26.1985 71.3111 24.3844C70.1861 21.9938 67.3314 20.4751 64.758 20.911C62.7892 21.2485 62.3111 21.6001 58.4017 25.4954L54.8439 29.0251V20.4329C54.8439 15.286 54.7877 11.5454 54.7033 11.0954C54.3799 9.33755 53.972 8.80318 50.0064 4.83755C46.0408 0.871925 45.5064 0.464111 43.7486 0.140678C42.8064 -0.0280762 5.97675 -0.0280762 5.07676 0.154739ZM37.9689 9.71724C37.9689 15.1594 37.9689 15.2297 38.2783 15.7782C38.8971 16.875 38.9111 16.875 45.1408 16.875H50.6252V25.0735V33.2579L45.8439 38.0391L41.0627 42.8204L39.4455 47.686C38.5596 50.3579 37.8283 52.7344 37.8283 52.9594C37.8424 53.9297 38.8971 54.9844 39.8674 54.9844C40.5424 54.9844 49.908 51.8063 50.3017 51.4547L50.6252 51.1454V58.6266C50.6252 65.8407 50.6111 66.1219 50.3439 66.6563C50.1611 67.0219 49.8658 67.3172 49.5002 67.5C48.9517 67.7813 48.7127 67.7813 27.4221 67.7813C6.56738 67.7813 5.87832 67.7672 5.37207 67.5141C5.06269 67.3594 4.72519 67.0219 4.52832 66.6844L4.21894 66.1219V35.986V5.83599L4.55644 5.28755C5.24551 4.14849 3.83926 4.23286 21.9096 4.2188H37.9689V9.71724ZM43.2705 4.35943C43.7908 4.5563 50.1752 10.9126 50.4283 11.4891C50.5408 11.7422 50.6252 12.1079 50.6252 12.3047V12.6563H46.4064H42.1877V8.43755V4.2188H42.5252C42.722 4.2188 43.0455 4.28912 43.2705 4.35943ZM66.6564 25.3125C67.2611 25.6219 67.7814 26.4375 67.7814 27.0844C67.7814 27.7594 67.2611 28.5891 66.1361 29.7001L65.0392 30.7969L63.5205 29.2782L62.0158 27.7735L63.1689 26.6204C63.8158 25.9875 64.533 25.3688 64.758 25.2563C65.3345 24.9469 65.9955 24.9751 66.6564 25.3125ZM56.9533 38.8829L51.8908 43.9454L50.3861 42.4266L48.8674 40.9219L53.9299 35.8594L58.9924 30.7969L60.497 32.3016L62.0158 33.8204L56.9533 38.8829ZM47.3908 45.4922L48.8674 46.9688L48.3049 47.5172C47.8267 47.9813 47.433 48.1641 45.5767 48.7829C44.3814 49.1766 43.383 49.4719 43.3549 49.4579C43.3408 49.4297 43.6361 48.4313 44.0299 47.236C44.6205 45.4641 44.8455 44.9719 45.2533 44.536C45.5345 44.2547 45.8017 44.0157 45.8439 44.0157C45.8861 44.0157 46.5752 44.6766 47.3908 45.4922Z" fill="#EEB949"/>
<path d="M9.57656 21.3609C8.98594 21.6703 8.4375 22.5563 8.4375 23.1891C8.4375 23.8641 8.97188 24.7359 9.59062 25.0453C10.0969 25.2984 10.6734 25.3125 25.3125 25.3125C40.2609 25.3125 40.5141 25.3125 41.0625 25.0312C41.6953 24.7078 42.1875 23.9062 42.1875 23.2031C42.1875 22.5 41.6953 21.6984 41.0625 21.375C40.5141 21.0938 40.275 21.0938 25.2844 21.0938C10.8984 21.1078 10.0266 21.1219 9.57656 21.3609Z" fill="#EEB949"/>
<path d="M9.57656 29.7984C8.98594 30.1078 8.4375 30.9938 8.4375 31.6266C8.4375 32.3016 8.97188 33.1734 9.59062 33.4828C10.0969 33.7359 10.5891 33.75 21.0938 33.75C31.8234 33.75 32.0906 33.75 32.625 33.4688C33.2578 33.1453 33.75 32.3438 33.75 31.6406C33.75 30.9375 33.2578 30.1359 32.625 29.8125C32.0906 29.5312 31.8234 29.5312 21.0656 29.5312C10.7297 29.5453 10.0266 29.5594 9.57656 29.7984Z" fill="#EEB949"/>
<path d="M9.57656 38.2359C8.98594 38.5453 8.4375 39.4313 8.4375 40.0641C8.4375 40.7391 8.97188 41.6109 9.59062 41.9203C10.0969 42.1734 10.5891 42.1875 21.0938 42.1875C31.8234 42.1875 32.0906 42.1875 32.625 41.9062C33.2578 41.5828 33.75 40.7812 33.75 40.0781C33.75 39.375 33.2578 38.5734 32.625 38.25C32.0906 37.9688 31.8234 37.9688 21.0656 37.9688C10.7297 37.9828 10.0266 37.9969 9.57656 38.2359Z" fill="#EEB949"/>
<path d="M9.57656 46.6734C8.98594 46.9828 8.4375 47.8688 8.4375 48.5016C8.4375 49.1766 8.97188 50.0484 9.59062 50.3578C10.0969 50.6109 10.5891 50.625 21.0938 50.625C31.8234 50.625 32.0906 50.625 32.625 50.3438C33.2578 50.0203 33.75 49.2188 33.75 48.5156C33.75 47.8125 33.2578 47.0109 32.625 46.6875C32.0906 46.4062 31.8234 46.4062 21.0656 46.4062C10.7297 46.4203 10.0266 46.4344 9.57656 46.6734Z" fill="#EEB949"/>
<path d="M26.4516 59.6109C25.8609 59.9203 25.3125 60.8063 25.3125 61.4391C25.3125 62.1141 25.8469 62.9859 26.4656 63.2953C26.9578 63.5484 27.3937 63.5625 33.75 63.5625C40.2469 63.5625 40.5281 63.5484 41.0625 63.2812C41.6953 62.9578 42.1875 62.1562 42.1875 61.4531C42.1875 60.75 41.6953 59.9484 41.0625 59.625C40.5281 59.3578 40.2609 59.3438 33.7219 59.3438C27.45 59.3578 26.8875 59.3719 26.4516 59.6109Z" fill="#EEB949"/>
</svg>
