<svg width="56" height="72" viewBox="0 0 56 72" fill="none" xmlns="http://www.w3.org/2000/svg">
<path d="M0.4375 36V72H28H55.5625V42.2859V12.5859L49.2625 6.28594L42.9766 0H21.7H0.4375V36ZM37.8438 10.8281V17.4375H44.5938H51.3438V42.6094V67.7812H28H4.65625V36V4.21875H21.25H37.8438V10.8281ZM49.9375 12.8953L50.2891 13.2188H46.1687H42.0625V9.18282V5.14687L45.8312 8.85938C47.8984 10.8984 49.7406 12.7125 49.9375 12.8953Z" fill="#222222"/>
<path d="M12.5312 21.6562V23.7656H20.2656H28V21.6562V19.5469H20.2656H12.5312V21.6562Z" fill="#222222"/>
<path d="M12.5312 32.7656V34.875H28H43.4688V32.7656V30.6562H28H12.5312V32.7656Z" fill="#222222"/>
<path d="M12.5312 43.875V45.9844H28H43.4688V43.875V41.7656H28H12.5312V43.875Z" fill="#222222"/>
<path d="M20.5469 54.9844V57.0938H28H35.4531V54.9844V52.875H28H20.5469V54.9844Z" fill="#222222"/>
</svg>
